# xmcd
#
# Track frame offsets: 
#        150
#        21985
#        43750
#        55565
#        81140
#        99925
#        118745
#        135910
#        156585
#        181915
#
# Disc length: 2662 seconds
#
# Revision: 1
# Processed by: cddbd v1.5.2PL0 Copyright (c) Steve Scherf et al.
# Submitted via: ExactAudioCopy v1.0b3
#
DISCID=790a640a
DTITLE=李翊君 - 你那麼愛她
DYEAR=1900
DGENRE=
TTITLE0=你那麼愛她
TTITLE1=回頭是岸
TTITLE2=愛情無用
TTITLE3=最愛最恨都是你
TTITLE4=愛的生還者
TTITLE5=自首
TTITLE6=不再愛你
TTITLE7=愛情酒鬼
TTITLE8=無辜
TTITLE9=我喊住眼淚
EXTD=
EXTT0=
EXTT1=
EXTT2=
EXTT3=
EXTT4=
EXTT5=
EXTT6=
EXTT7=
EXTT8=
EXTT9=
PLAYORDER=
